<svg width="136" height="134" viewBox="0 0 136 134" fill="none" xmlns="http://www.w3.org/2000/svg">
<path d="M135.371 57.6C134.971 55.4 134.671 53 134.171 50.8C131.471 40.7 126.571 31.2 119.771 23.3C115.671 18.5 110.771 14.3 105.371 10.7C99.2707 6.7 92.5707 3.7 85.5707 1.7C83.7707 1.3 81.8707 0.8 80.0707 0.4C79.1707 0.2 78.3707 0.1 77.4707 0V10.7C86.2707 12.3 94.6707 15.7 102.071 20.8L101.971 21L34.0707 21.3L33.9707 21C37.6707 18.4 41.5707 16.2 45.7707 14.5C49.8707 12.8 54.2707 11.5 58.6707 10.7V0.1C58.5707 0.1 58.4707 0.1 58.2707 0.1C55.5707 0.7 53.0707 1.2 50.3707 1.9C46.4707 2.9 42.5707 4.3 38.8707 6.1C30.0707 10.3 22.1707 16.5 15.7707 24C10.4707 30.3 6.37071 37.5 3.57071 45.2C2.27071 48.8 1.37071 52.5 0.870711 56.4C0.670711 58.6 0.170711 61 0.0707107 63.2C-0.0292893 67.5 -0.129289 71.9 0.570711 76.1C0.970711 78.5 1.47071 81.1 1.97071 83.6C3.17071 88.4 4.97071 93.1 7.27071 97.5C10.9707 104.5 15.7707 110.9 21.6707 116.2C26.7707 121 32.6707 124.9 39.0707 127.9C44.7707 130.6 50.8707 132.6 57.0707 133.7L58.6707 133.9V133C58.6707 129.7 58.6707 126.2 58.6707 122.9C58.6707 122.3 58.7707 122.1 59.3707 122.1C62.4707 122.1 65.5707 122 68.6707 121.9C71.3707 121.9 73.9707 121.9 76.6707 121.9C76.8707 121.9 77.0707 121.9 77.2707 122V133.7C78.5707 133.5 79.9707 133.3 81.1707 133C83.4707 132.4 85.9707 131.8 88.2707 131C91.1707 130 94.0707 128.9 96.8707 127.7C102.971 124.8 108.771 121 113.771 116.3C121.671 109.2 127.771 100.3 131.571 90.4C132.771 87.2 133.771 83.8 134.471 80.5C134.771 78.9 135.071 77.4 135.271 75.8C135.571 74.1 135.671 72.5 135.871 70.7C135.971 66.5 136.271 62 135.371 57.6ZM58.6707 121.2V122C55.3707 121.4 52.0707 120.6 48.9707 119.4C42.1707 117.1 35.8707 113.5 30.2707 108.8C23.3707 103.1 18.0707 95.9 14.4707 87.7C12.7707 83.8 11.5707 79.8 10.8707 75.7C10.6707 74.6 10.5707 73.4 10.2707 72.3C10.1707 71.6 10.2707 71.4 11.0707 71.4C16.5707 71.4 21.9707 71.4 27.2707 71.4H28.1707V62.1C27.8707 62.1 27.5707 62.1 27.2707 62.1C21.7707 62.1 16.3707 62.1 11.0707 62.1C10.3707 62.1 10.1707 61.9 10.2707 61.2C10.5707 59 10.9707 56.9 11.3707 54.6C12.0707 51.3 13.1707 48 14.4707 44.8C16.4707 40.3 19.0707 36 22.0707 32.1C23.2707 30.5 24.4707 30.1 26.3707 30.1C36.6707 30.2 47.1707 30.1 57.5707 30.1C58.4707 30.1 58.4707 30.1 58.4707 31V62.5H41.3707V71.5H42.1707C47.3707 71.5 52.6707 71.5 57.8707 71.5C58.5707 71.5 58.6707 71.7 58.6707 72.3C58.5707 88.6 58.6707 104.9 58.6707 121.2ZM125.771 61.9H107.871V71.4H125.771C125.771 72.2 125.671 73 125.571 73.7C124.971 76.3 124.671 78.7 123.871 81.2C122.171 87.1 119.671 92.6 116.071 97.6C113.071 101.9 109.371 105.8 105.371 109.2C100.071 113.7 93.8707 117.1 87.3707 119.3C84.1707 120.4 80.7707 121.3 77.4707 121.9V71.3H94.6707V62.3H78.3707C77.4707 62.3 77.4707 62.3 77.4707 61.4V30.3C77.7707 30.3 78.0707 30.3 78.2707 30.3H111.571C111.771 30.3 111.971 30.3 112.171 30.4C112.371 30.5 112.471 30.6 112.571 30.7C117.371 36.3 121.071 42.7 123.271 49.7C124.171 52.5 124.871 55.4 125.271 58.4C125.371 59.3 125.471 60.2 125.571 61.2C125.771 61.3 125.771 61.6 125.771 61.9Z" fill="url(#paint0_linear)"/>
<defs>
<linearGradient id="paint0_linear" x1="-0.0292893" y1="66.9286" x2="135.971" y2="66.9286" gradientUnits="userSpaceOnUse">
<stop stop-color="#FFA201"/>
<stop offset="0.3366" stop-color="#FF8101"/>
<stop offset="1" stop-color="#FF3700"/>
</linearGradient>
</defs>
</svg>
